<svg viewBox="0 0 20.57 20.258">
    <path d="M19.513 20.136H.734a.666.666 0 0 1-.514-.22A.666.666 0 0 1 0 19.4a8.817 8.817 0 0 1 .587-3.595 4.736 4.736 0 0 1 2.421-2.494 11.868 11.868 0 0 1 3.448-1.027 6.559 6.559 0 0 1-1.1-2.494 13.594 13.594 0 0 1-.293-4.915 2.79 2.79 0 0 1 2.273-2.931.321.321 0 0 0 .22-.073c.073-.073.147-.293 0-.807a.779.779 0 0 1 .073-.588.743.743 0 0 1 .514-.293 8.227 8.227 0 0 1 4.842.954 5.12 5.12 0 0 1 2.274 3.815 12.694 12.694 0 0 1-.293 4.915 10.061 10.061 0 0 1-1.1 2.494 9.517 9.517 0 0 1 3.448 1.027 5.317 5.317 0 0 1 2.421 2.494 8.817 8.817 0 0 1 .587 3.595.666.666 0 0 1-.22.514 1.726 1.726 0 0 1-.589.145zM1.467 18.669h17.312a7.818 7.818 0 0 0-.44-2.274 3.578 3.578 0 0 0-1.761-1.834 10.4 10.4 0 0 0-4.255-.954.843.843 0 0 1-.66-.44.8.8 0 0 1 .147-.807 6.948 6.948 0 0 0 1.614-2.934 10.456 10.456 0 0 0 .294-4.326 3.876 3.876 0 0 0-1.541-2.79A6.207 6.207 0 0 0 9.1 1.5a2.07 2.07 0 0 1-.3 1.1 1.63 1.63 0 0 1-1.174.734c-.807.22-1.027.66-1.1 1.687a12.516 12.516 0 0 0 .293 4.4 6.389 6.389 0 0 0 1.617 2.939.67.67 0 0 1 .147.807.642.642 0 0 1-.66.44 10.043 10.043 0 0 0-4.181.954 3.578 3.578 0 0 0-1.761 1.834 6.048 6.048 0 0 0-.514 2.274z" transform="translate(.125 -.003)"/>
</svg>
