<svg viewBox="0 0 24 24">
    <g transform="matrix(1,0,0,1,0,0)">
        <path d="M 1.75,6.75h2.5c0.552,0,1,0.448,1,1v11.5c0,0.552-0.448,1-1,1h-2.5c-0.552,0-1-0.448-1-1V7.75 C0.75,7.198,1.198,6.75,1.75,6.75z "
              fill="none" stroke-width="1.5" stroke-linecap="round" stroke-linejoin="round"></path>
        <path d="M 11.364,5.971L5.219,7.508 " fill="none" stroke-width="1.5" stroke-linecap="round"
              stroke-linejoin="round"></path>
        <path d="M 17.157,19.5h4.093c1.105,0,2-0.895,2-2V9.117 c0-0.943-0.659-1.758-1.581-1.956l-4.528-1.178 "
              fill="none" stroke-width="1.5" stroke-linecap="round" stroke-linejoin="round"></path>
        <path d="M 5.217,19.5h6.126 " fill="none" stroke-width="1.5" stroke-linecap="round"
              stroke-linejoin="round"></path>
        <path d="M 14.25,8.25c3.314,0,6,2.686,6,6s-2.686,6-6,6s-6-2.686-6-6 S10.936,8.25,14.25,8.25z " stroke="#000000"
              fill="none" stroke-width="1.5" stroke-linecap="round" stroke-linejoin="round"></path>
        <path d="M 14.25,11.25c1.657,0,3,1.343,3,3s-1.343,3-3,3s-3-1.343-3-3S12.593,11.25,14.25,11.25z "
              fill="none" stroke-width="1.5" stroke-linecap="round" stroke-linejoin="round"></path>
        <path d="M 10.078,9.938 l1.638-5.052c0.167-0.668,0.767-1.136,1.455-1.136h2.158c0.688,0,1.288,0.468,1.455,1.136l1.656,5.069"
              fill="none" stroke-width="1.5" stroke-linecap="round" stroke-linejoin="round"></path>
    </g>
</svg>