<svg viewBox="0 0 24 24">
    <path stroke="none" d="M14.75,9.375c2.071,0,3.75,1.679,3.75,3.75s-1.679,3.75-3.75,3.75S11,15.196,11,13.125S12.679,9.375,14.75,9.375z M21.444,6.125h-1.316c-0.215-0.008-0.405-0.144-0.481-0.346C19.029,4.475,18.39,3.125,17,3.125h-5 c-1.071,0-1.636,0.778-2.659,2.191c-0.384,0.527-0.51,0.809-0.844,0.809h-6C0.434,6.125,0,7.334,0,8.348v10.388 c-0.086,1.242,0.851,2.318,2.093,2.405c0.155,0.011,0.31,0.005,0.463-0.016h18.888c1.233,0.17,2.371-0.692,2.54-1.926 c0.021-0.154,0.026-0.309,0.016-0.463V8.348C24,7.334,23.557,6.125,21.444,6.125z M20.5,13.125c0,3.176-2.574,5.75-5.75,5.75 S9,16.301,9,13.125s2.574-5.75,5.75-5.75C17.924,7.378,20.497,9.951,20.5,13.125z M5,9.875c0,0.69-0.56,1.25-1.25,1.25 s-1.25-0.56-1.25-1.25s0.56-1.25,1.25-1.25S5,9.185,5,9.875z M2.5,5.109l3,0.016l0,0c0.276,0,0.5-0.224,0.5-0.5v-0.25 c0-0.828-0.672-1.5-1.5-1.5h-1c-0.828,0-1.5,0.672-1.5,1.5v0.234C2,4.885,2.224,5.109,2.5,5.109z"></path>
</svg>