<svg viewBox="0 0 512.00099 512">
  <path d="M497 36.953125h-65.703125c.238281-7.277344.371094-14.597656.371094-21.953125 0-8.285156-6.71875-15-15-15H95.332031c-8.28125 0-15 6.714844-15 15 0 7.355469.132813 14.675781.371094 21.953125H15c-8.285156 0-15 6.714844-15 15 0 67.210937 17.566406 130.621094 49.460938 178.554687 31.527343 47.386719 73.523437 74.566407 118.890624 77.210938 10.285157 11.191406 21.15625 20.316406 32.480469 27.277344v66.667968h-25.164062c-30.421875 0-55.167969 24.75-55.167969 55.167969v25.164063h-1.066406c-8.285156 0-15 6.71875-15 15 0 8.285156 6.714844 15 15 15h273.132812c8.285156 0 15-6.714844 15-15 0-8.28125-6.714844-15-15-15H391.5v-25.164063c0-30.417969-24.746094-55.167969-55.167969-55.167969h-25.164062v-66.667968c11.324219-6.957032 22.199219-16.085938 32.484375-27.277344 45.363281-2.644531 87.359375-29.824219 118.890625-77.210938C494.4375 182.574219 512 119.164062 512 51.953125c0-8.285156-6.714844-15-15-15zm-422.5625 176.9375c-26.308594-39.535156-41.765625-91.246094-44.121094-146.9375h52.0625c5.410156 68.460937 21.480469 131.742187 46.597656 181.972656 4 8 8.183594 15.558594 12.523438 22.675781-24.949219-9.421874-48.039062-29.117187-67.0625-57.710937zM361.5 456.832031V482h-211v-25.167969c0-13.875 11.289062-25.167969 25.167969-25.167969h160.664062c13.878907 0 25.167969 11.292969 25.167969 25.167969zm-80.332031-55.167969h-50.335938V348.03125c8.246094 2.171875 16.648438 3.300781 25.167969 3.300781s16.921875-1.128906 25.167969-3.300781zm9.289062-89.320312c-.675781.277344-1.324219.613281-1.945312.984375-10.601563 5.273437-21.496094 8.003906-32.511719 8.003906-11.011719 0-21.902344-2.730469-32.5-7.996093-.628906-.378907-1.28125-.714844-1.964844-1-11.761718-6.21875-23.140625-15.609376-33.902344-27.949219-.566406-.808594-1.203124-1.554688-1.910156-2.234375-10.683594-12.683594-20.734375-28.285156-29.914062-46.644532C128.242188 180.378906 112.320312 107.890625 110.507812 30h290.984376c-1.816407 77.890625-17.738282 150.382812-45.300782 205.507812-9.179687 18.359376-19.230468 33.960938-29.910156 46.644532-.710938.679687-1.355469 1.429687-1.917969 2.238281-10.761719 12.34375-22.144531 21.730469-33.90625 27.953125zM437.5625 213.890625c-19.023438 28.59375-42.113281 48.289063-67.0625 57.710937 4.339844-7.117187 8.523438-14.675781 12.523438-22.675781 25.117187-50.230469 41.183593-113.511719 46.597656-181.972656h52.0625c-2.355469 55.691406-17.8125 107.402344-44.121094 146.9375zm0 0"/>
</svg>