<svg viewBox="0 0 24 24">
    <g transform="matrix(1,0,0,1,0,0)">
        <path d="M12.5,9.25c0.002,1.242,1.008,2.248,2.25,2.25h9c0.138,0,0.25-0.112,0.25-0.25V2.5C24,1.119,22.881,0,21.5,0h-8.75 c-0.138,0-0.25,0.112-0.25,0.25V9.25z M18.5,8C17.119,8,16,6.881,16,5.5S17.119,3,18.5,3S21,4.119,21,5.5S19.881,8,18.5,8z M14.75,13c-2.07-0.003-3.747-1.68-3.75-3.75v-9C11,0.112,10.888,0,10.75,0H2.5C1.119,0,0,1.119,0,2.5v12C0,15.881,1.119,17,2.5,17 h19c1.381,0,2.5-1.119,2.5-2.5v-1.25c0-0.138-0.112-0.25-0.25-0.25H14.75z M2.875,4.5c0-0.414,0.336-0.75,0.75-0.75H7 c0.414,0,0.75,0.336,0.75,0.75S7.414,5.25,7,5.25H3.625C3.211,5.25,2.875,4.914,2.875,4.5z M16.5,22h-2.25 C14.112,22,14,21.888,14,21.75V18.5c0-0.276-0.224-0.5-0.5-0.5h-3c-0.276,0-0.5,0.224-0.5,0.5V19c0,0.138-0.112,0.25-0.25,0.25 h-3.5C6.112,19.25,6,19.138,6,19c0-0.276-0.224-0.5-0.5-0.5h-4C0.672,18.5,0,19.172,0,20s0.672,1.5,1.5,1.5h4 C5.776,21.5,6,21.276,6,21c0-0.138,0.112-0.25,0.25-0.25h3.5C9.888,20.75,10,20.862,10,21v0.75C10,21.888,9.888,22,9.75,22H7.5 c-0.552,0-1,0.448-1,1s0.448,1,1,1h9c0.552,0,1-0.448,1-1S17.052,22,16.5,22z"
              stroke="none" fill="#000000" stroke-width="0" stroke-linecap="round" stroke-linejoin="round"></path>
    </g>
</svg>