<svg viewBox="0 0 24 24">
    <g transform="matrix(1,0,0,1,0,0)">
        <path d="M 2.75,0.75h18.5c1.105,0,2,0.895,2,2V14.5c0,1.105-0.895,2-2,2H2.75c-1.105,0-2-0.895-2-2V2.75 C0.75,1.645,1.645,0.75,2.75,0.75z "
              fill="none" stroke-width="1.5" stroke-linecap="round" stroke-linejoin="round"></path>
        <path d="M 4.25,3.75h3.5c0.276,0,0.5,0.224,0.5,0.5V7c0,0.276-0.224,0.5-0.5,0.5h-3.5 c-0.276,0-0.5-0.224-0.5-0.5V4.25C3.75,3.974,3.974,3.75,4.25,3.75z "
              fill="none" stroke-width="1.5" stroke-linecap="round" stroke-linejoin="round"></path>
        <path d="M 11.25,0.75h10c1.105,0,2,0.895,2,2v10l0,0h-10 c-1.105,0-2-0.895-2-2V0.75L11.25,0.75z "
              fill="none" stroke-width="1.5" stroke-linecap="round" stroke-linejoin="round"></path>
        <path d="M 17.25,3.75c1.657,0,3,1.343,3,3s-1.343,3-3,3s-3-1.343-3-3S15.593,3.75,17.25,3.75z " stroke="#000000"
              fill="none" stroke-width="1.5" stroke-linecap="round" stroke-linejoin="round"></path>
        <path d="M 13.467,23.25H10.5l0.033-6.75h2.934V23.25z " fill="none" stroke-width="1.5"
              stroke-linecap="round" stroke-linejoin="round"></path>
        <path d="M 8.25,23.25h7.5 " fill="none" stroke-width="1.5" stroke-linecap="round"
              stroke-linejoin="round"></path>
        <path d="M 6,10.5c0.828,0,1.5,0.672,1.5,1.5S6.828,13.5,6,13.5 S4.5,12.828,4.5,12S5.172,10.5,6,10.5z "
              fill="none" stroke-width="1.5" stroke-linecap="round" stroke-linejoin="round"></path>
        <path d="M 10.514,20.25H5.25 " fill="none" stroke-width="1.5" stroke-linecap="round"
              stroke-linejoin="round"></path>
        <path d="M 5.25,22.5h-3c-0.828,0-1.5-0.672-1.5-1.5l0,0 c0-0.828,0.672-1.5,1.5-1.5h3V22.5z" stroke="#000000"
              fill="none" stroke-width="1.5" stroke-linecap="round" stroke-linejoin="round"></path>
    </g>
</svg>