<svg viewBox="0 0 20 20">
    <g transform="scale(0.67) translate(3,3)">
        <path d="M 2.25,0.747h6c0.828,0,1.5,0.672,1.5,1.5v6c0,0.828-0.672,1.5-1.5,1.5h-6c-0.828,0-1.5-0.672-1.5-1.5v-6 C0.75,1.419,1.422,0.747,2.25,0.747z " fill="none" stroke-width="2"></path>
        <path d="M 2.25,14.247h6c0.828,0,1.5,0.672,1.5,1.5v6c0,0.828-0.672,1.5-1.5,1.5h-6 c-0.828,0-1.5-0.672-1.5-1.5v-6C0.75,14.919,1.422,14.247,2.25,14.247z " fill="none" stroke-width="2"></path>
        <path d="M 15.75,0.747h6c0.828,0,1.5,0.672,1.5,1.5v6 c0,0.828-0.672,1.5-1.5,1.5h-6c-0.828,0-1.5-0.672-1.5-1.5v-6C14.25,1.419,14.922,0.747,15.75,0.747z " fill="none" stroke-width="2"></path>
        <path d="M 15.75,14.247h6 c0.828,0,1.5,0.672,1.5,1.5v6c0,0.828-0.672,1.5-1.5,1.5h-6c-0.828,0-1.5-0.672-1.5-1.5v-6 C14.25,14.919,14.922,14.247,15.75,14.247z" fill="none" stroke-width="2"></path>
    </g>
</svg>
