<svg viewbox="0 0 173 200"><defs><linearGradient id="a" x2="0%" y2="100%"><stop offset="0%" stop-color="#6dcff6"/><stop offset="100%" stop-color="#00123f"/></linearGradient></defs><g stroke="none"><path fill="url(#a)" d="M78.74 176.74a16.04 16.04 0 0 1-8.14-2.22L8.14 138.55A16.4 16.4 0 0 1 0 124.34V52.26A16.17 16.17 0 0 1 8.14 38.2L70.6 2.08a16.76 16.76 0 0 1 16.28 0l62.46 36.12a16.35 16.35 0 0 1 8.14 14.06v72.08a16.17 16.17 0 0 1-8.14 14.06l-62.46 36.12a16.04 16.04 0 0 1-8.14 2.22zm0-173.77a13.2 13.2 0 0 0-6.66 1.78L9.62 40.7a13.3 13.3 0 0 0-6.66 11.55v72.08a13.3 13.3 0 0 0 6.66 11.54L72.08 172a13.38 13.38 0 0 0 13.32 0l62.46-36.11a13.3 13.3 0 0 0 6.66-11.55V52.26a13.3 13.3 0 0 0-6.66-11.55L85.4 4.75a13.2 13.2 0 0 0-6.66-1.78z" transform="translate(0 .02)"/><path fill="#fff" fill-rule="evenodd" d="M78.8 168.98a13.5 13.5 0 0 1-6.86-1.8l-57.95-33.46a13.77 13.77 0 0 1-6.86-11.95V55.08A13.77 13.77 0 0 1 14 43.14L71.93 9.66a14.1 14.1 0 0 1 13.73 0l57.94 33.49a13.77 13.77 0 0 1 6.86 11.93v66.82a13.77 13.77 0 0 1-6.86 11.94l-57.94 33.48a15.31 15.31 0 0 1-6.87 1.65z"/></g></svg>