<svg viewBox="0 0 24 24">
    <path d="M24,9.5c0-0.31-0.144-0.602-0.389-0.791l-11-8.5c-0.36-0.278-0.862-0.278-1.222,0l-11,8.5C0.144,8.898,0,9.19,0,9.5V23 c0,0.552,0.448,1,1,1h8c0.552,0,1-0.448,1-1v-5c0-1.105,0.895-2,2-2s2,0.895,2,2v5c0,0.552,0.448,1,1,1h8c0.552,0,1-0.448,1-1V9.5z M22,21.5c0,0.276-0.224,0.5-0.5,0.5h-5c-0.276,0-0.5-0.224-0.5-0.5V18c0-2.209-1.791-4-4-4s-4,1.791-4,4v3.5 C8,21.776,7.776,22,7.5,22h-5C2.224,22,2,21.776,2,21.5V10.236c-0.001-0.156,0.07-0.304,0.194-0.4l9.5-7.341 c0.18-0.139,0.432-0.139,0.612,0l9.5,7.341c0.124,0.096,0.195,0.244,0.194,0.4V21.5z"></path>
</svg>