<svg viewBox="0 0 20 20">
    <g transform="scale(0.67) translate(3,3)">
        <path d="M 9.75,0.747h12c0.828,0,1.5,0.672,1.5,1.5v1.5c0,0.828-0.672,1.5-1.5,1.5h-12c-0.828,0-1.5-0.672-1.5-1.5v-1.5 C8.25,1.419,8.922,0.747,9.75,0.747z " fill="none" stroke-width="2"></path>
        <path d="M 9.75,9.747h12c0.828,0,1.5,0.672,1.5,1.5v1.5c0,0.828-0.672,1.5-1.5,1.5h-12 c-0.828,0-1.5-0.672-1.5-1.5v-1.5C8.25,10.419,8.922,9.747,9.75,9.747z " fill="none" stroke-width="2"></path>
        <path d="M 9.75,18.747h12c0.828,0,1.5,0.672,1.5,1.5v1.5 c0,0.828-0.672,1.5-1.5,1.5h-12c-0.828,0-1.5-0.672-1.5-1.5v-1.5C8.25,19.419,8.922,18.747,9.75,18.747z " fill="none" stroke-width="2"></path>
        <path d="M 2.25,0.747h1.5 c0.828,0,1.5,0.672,1.5,1.5v1.5c0,0.828-0.672,1.5-1.5,1.5h-1.5c-0.828,0-1.5-0.672-1.5-1.5v-1.5 C0.75,1.419,1.422,0.747,2.25,0.747z " fill="none" stroke-width="2"></path>
        <path d="M 2.25,9.747h1.5c0.828,0,1.5,0.672,1.5,1.5v1.5c0,0.828-0.672,1.5-1.5,1.5h-1.5 c-0.828,0-1.5-0.672-1.5-1.5v-1.5C0.75,10.419,1.422,9.747,2.25,9.747z " fill="none" stroke-width="2"></path>
        <path d="M 2.25,18.747h1.5c0.828,0,1.5,0.672,1.5,1.5v1.5 c0,0.828-0.672,1.5-1.5,1.5h-1.5c-0.828,0-1.5-0.672-1.5-1.5v-1.5C0.75,19.419,1.422,18.747,2.25,18.747z" fill="none" stroke-width="2"></path>
    </g>
</svg>
