<svg xmlns="http://www.w3.org/2000/svg" viewBox="0 0 202.96 202.96">
    <defs>
        <style>
            .cls-1 {
            fill: #26a3bc;
            }

            .cls-2 {
            fill: #b5883d;
            }

            .cls-3 {
            fill: #f5d58a;
            }

            .cls-4 {
            fill: #986934;
            }

            .cls-5 {
            fill: #231f20;
            }
        </style>
    </defs>
    <g>
        <circle class="cls-1" cx="100.29" cy="101.12" r="93.04"/>
        <path class="cls-2"
              d="M440.34,331c-4.45-24.7-24.27-45.67-49.72-50.72-23.81-4.73-58.08,7.86-60.94,32.66-0.43,3.74-.84,7.49-1.42,11.22a28.2,28.2,0,0,1-.63,3.57c-0.3,1-1.16,2.58-1.61.41-1.79-8.51-2-17.07,1.06-25.31,7.2-19.55,27.67-33.82,47.66-37.66,29.51-5.67,57.76,12.45,71.44,38,12.33,23,12.87,51.59,4.62,76.41a101.2,101.2,0,0,1-23,12.48C438.87,373.87,443.89,350.68,440.34,331Z"
              transform="translate(-293.57 -204.08)"/>
        <path class="cls-3"
              d="M460,312.84c-9.67-29.8-40.23-56.31-72.61-56.91-28.88-.54-61.15,23.78-66.8,53.24-0.17.89-.95,3.82-2.25,3.06-1-.6-0.94-4.44-1-5.46a62.85,62.85,0,0,1,10.42-36.3,81.9,81.9,0,0,1,52.78-35.13c38-7,74.67,16.2,92.47,49a112,112,0,0,1,13,49.22,100.27,100.27,0,0,1-26.82,39.27C465.08,352.89,466,331.39,460,312.84Z"
              transform="translate(-293.57 -204.08)"/>
        <path class="cls-4"
              d="M422.42,354.35c-1-33.1-35.32-64.58-68.56-48.86-8.79,4.15-16.62,9.83-18.16,20a16.55,16.55,0,0,1-1.09,4.64c-1.2,2.54-2.39,2.08-2.54-.3a38.92,38.92,0,0,1,.53-7.23c2.86-22.13,26.15-37.61,46.81-38.27,23.59-.76,43.81,17.24,51.46,38.61,8.39,23.43,3.44,51.54-10.75,71.76a100.16,100.16,0,0,1-12.74,2.88A65.5,65.5,0,0,0,422.42,354.35Z"
              transform="translate(-293.57 -204.08)"/>
        <path class="cls-5"
              d="M312.78,291.77c5.9-37.27,48.65-67.14,84.39-66.74,40.85,0.46,77.35,34.61,90.27,72.12a105.7,105.7,0,0,1,4,15.33c-0.2,1.34-.4,2.68-0.65,4a101.28,101.28,0,0,1-4.79,17,112,112,0,0,0-13-49.22c-17.79-32.8-54.52-56-92.47-49a81.9,81.9,0,0,0-52.78,35.13,62.85,62.85,0,0,0-10.42,36.3c0,1-.06,4.86,1,5.46,1.3,0.76,2.08-2.17,2.25-3.06,5.65-29.46,37.92-53.77,66.8-53.24,32.38,0.6,62.93,27.11,72.61,56.91,6,18.55,5.11,40-.79,60a101.32,101.32,0,0,1-8.37,6.75c8.25-24.82,7.7-53.37-4.62-76.41-13.67-25.56-41.92-43.68-71.44-38-20,3.84-40.46,18.11-47.66,37.66-3,8.24-2.86,16.81-1.06,25.31,0.46,2.17,1.31.62,1.61-.41a28.2,28.2,0,0,0,.63-3.57c0.57-3.72,1-7.47,1.42-11.22,2.86-24.8,37.13-37.39,60.94-32.66,25.45,5.05,45.27,26,49.72,50.72,3.54,19.68-1.47,42.87-12.51,61.07-2.53,1-5.1,1.83-7.71,2.6,14.19-20.22,19.15-48.33,10.75-71.76-7.65-21.37-27.87-39.37-51.46-38.61-20.66.67-43.95,16.14-46.81,38.27a38.92,38.92,0,0,0-.53,7.23c0.14,2.39,1.34,2.84,2.54.3a16.55,16.55,0,0,0,1.09-4.64c1.55-10.14,9.38-15.82,18.16-20,33.23-15.71,67.56,15.76,68.56,48.86a65.5,65.5,0,0,1-15,43.18,100,100,0,0,1-10.47,1.08c1.12-1.24,2.18-2.52,3.2-3.84,18.74-24.37,21.6-64.34-5.89-81.44-11.94-7.43-24.84-9.18-37.28-2-6.66,3.86-14.92,9.58-16.12,17.29-2.39,15.29-14.53,14.43-17.62,6.3C314.9,322.14,310.43,306.6,312.78,291.77Z"
              transform="translate(-293.57 -204.08)"/>
        <path class="cls-5"
              d="M393.86,212.16a93,93,0,1,1-93,93,93,93,0,0,1,93-93m3.23-8.08c-26.56,0-54.76,12-73.55,30.8s-30,46.15-30,72.71A99.44,99.44,0,0,0,393,407c26.56,0,52.38-12.74,71.16-31.52s32.35-45.43,32.35-72a99.44,99.44,0,0,0-99.44-99.44h0Z"
              transform="translate(-293.57 -204.08)"/>
    </g>
</svg>
