<svg viewBox="0 0 24 24">
    <g transform="matrix(1,0,0,1,0,0)">
        <path d="M 11.987,18.003c1.45,0,2.625,1.175,2.625,2.625s-1.175,2.625-2.625,2.625s-2.625-1.175-2.625-2.625 S10.537,18.003,11.987,18.003z "
              fill="none" stroke-width="1.5" stroke-linecap="round" stroke-linejoin="round"></path>
        <path d="M 11.987,0.753c1.45,0,2.625,1.175,2.625,2.625s-1.175,2.625-2.625,2.625S9.362,4.828,9.362,3.378 S10.537,0.753,11.987,0.753z "
              fill="none" stroke-width="1.5" stroke-linecap="round" stroke-linejoin="round"></path>
        <path d="M 11.987,9.378c1.45,0,2.625,1.175,2.625,2.625s-1.175,2.625-2.625,2.625s-2.625-1.175-2.625-2.625 S10.537,9.378,11.987,9.378z"
              fill="none" stroke-width="1.5" stroke-linecap="round" stroke-linejoin="round"></path>
    </g>
</svg>