<svg viewBox="0 0 24 24">
    <g transform="matrix(1,0,0,1,0,0)">
        <path d="M14.335,9.7c-0.099-0.472-0.561-0.775-1.033-0.676c-0.325,0.068-0.584,0.315-0.667,0.637l-1.592,3.5 c-0.057,0.126-0.205,0.181-0.331,0.124c-0.034-0.016-0.065-0.039-0.089-0.068l-1.1-1.314c-0.381-0.517-1.11-0.627-1.626-0.245 c-0.142,0.105-0.259,0.241-0.341,0.398L5.071,16.2c-0.142,0.237-0.065,0.544,0.172,0.686c0.078,0.047,0.167,0.071,0.257,0.071h11 c0.276,0,0.5-0.224,0.5-0.5c0-0.064-0.012-0.127-0.036-0.186L14.335,9.7z M20.5,18.5V2c0-1.105-0.895-2-2-2H2C0.895,0,0,0.895,0,2 v16.5c0,1.105,0.895,2,2,2h16.5C19.605,20.5,20.5,19.605,20.5,18.5z M2,2.5C2,2.224,2.224,2,2.5,2H18c0.276,0,0.5,0.224,0.5,0.5V18 c0,0.276-0.224,0.5-0.5,0.5H2.5C2.224,18.5,2,18.276,2,18V2.5z M6,4c1.105,0,2,0.895,2,2S7.105,8,6,8S4,7.105,4,6S4.895,4,6,4z M23,6c-0.552,0-1,0.448-1,1v14.5c0,0.276-0.224,0.5-0.5,0.5H7c-0.552,0-1,0.448-1,1s0.448,1,1,1h15c1.105,0,2-0.895,2-2V7 C24,6.448,23.552,6,23,6z"
              stroke="none" fill="#000000" stroke-width="0" stroke-linecap="round" stroke-linejoin="round"></path>
    </g>
</svg>