<svg viewBox="-1 -1 45 45">
    <path d="M0 21.125A21.193 21.193 0 0 1 21.125-.001a21.21 21.21 0 0 1 21.209 21.125 21.228 21.228 0 0 1-21.209 21.209A21.211 21.211 0 0 1 0 21.125zm1.936 0a19.252 19.252 0 0 0 19.189 19.272 19.325 19.325 0 0 0 19.274-19.272A19.254 19.254 0 0 0 21.125 1.936 19.181 19.181 0 0 0 1.936 21.125zm13.8 8.921a1.314 1.314 0 0 1-.673-1.095v-15.4a1.214 1.214 0 0 1 .673-1.095 1.144 1.144 0 0 1 1.262 0l13.3 7.66a1.311 1.311 0 0 1 .673 1.094 1.313 1.313 0 0 1-.673 1.095l-13.3 7.658a.653.653 0 0 1-.588.252 1.992 1.992 0 0 1-.671-.169z"/>
</svg>
