<svg viewBox="0 0 24 24">
    <path d="M12,0C5.373,0,0,5.373,0,12s5.373,12,12,12s12-5.373,12-12C23.993,5.376,18.624,0.007,12,0z M12,2.5 c5.237-0.013,9.492,4.222,9.505,9.459c0.005,2.23-0.775,4.391-2.205,6.102c-0.144,0.172-0.384,0.228-0.589,0.136 c-0.88-0.4-1.945-0.79-3.16-1.237l-0.744-0.274c-0.18-0.131-0.298-0.331-0.324-0.552c-0.147-0.516-0.079-1.069,0.187-1.534 c1.068-1.176,1.73-2.44,1.73-5.1c0.208-2.362-1.539-4.446-3.902-4.653C12.333,4.832,12.166,4.827,12,4.832 c-2.371-0.068-4.347,1.799-4.415,4.17C7.581,9.168,7.585,9.334,7.6,9.5c0,2.663,0.662,3.927,1.73,5.1 c0.268,0.464,0.337,1.017,0.192,1.533c-0.026,0.221-0.144,0.421-0.324,0.552l-0.744,0.274c-1.215,0.447-2.28,0.84-3.16,1.237 c-0.205,0.092-0.445,0.036-0.589-0.136c-3.357-4.019-2.82-9.999,1.2-13.356C7.615,3.276,9.772,2.496,12,2.5z"></path>
</svg>