<svg viewBox="0 0 24 24">
    <path d="M24,7.5c0-1.105-0.895-2-2-2h-1.75C20.112,5.5,20,5.388,20,5.25V3.5c0-0.552-0.448-1-1-1H2c-1.105,0-2,0.895-2,2v12 c0,0.552,0.448,1,1,1h1.75C2.888,17.5,3,17.612,3,17.75v1.75c0,1.105,0.895,2,2,2h3c0.552,0,1-0.448,1-1 c0-0.414,0.336-0.75,0.75-0.75s0.75,0.336,0.75,0.75c0,0.552,0.448,1,1,1h4c0.552,0,1-0.448,1-1c0-0.414,0.336-0.75,0.75-0.75 S18,20.086,18,20.5c0,0.552,0.448,1,1,1h3c1.105,0,2-0.895,2-2V7.5z M22,19c0,0.276-0.224,0.5-0.5,0.5h-1.523 c-0.098,0-0.187-0.057-0.227-0.146c-0.633-1.381-2.265-1.987-3.646-1.354c-0.599,0.275-1.08,0.755-1.354,1.354 c-0.04,0.089-0.129,0.146-0.227,0.146h-2.046c-0.098,0-0.187-0.057-0.227-0.146C11.617,17.973,9.985,17.367,8.604,18 c-0.599,0.275-1.08,0.755-1.354,1.354C7.21,19.443,7.121,19.5,7.023,19.5H5.5C5.224,19.5,5,19.276,5,19V8 c0-0.276,0.224-0.5,0.5-0.5h16C21.776,7.5,22,7.724,22,8V19z M14.75,10.75c0,0.414,0.336,0.75,0.75,0.75H20 c0.414,0,0.75-0.336,0.75-0.75S20.414,10,20,10h-4.5C15.086,10,14.75,10.336,14.75,10.75z M18,13h-2.5 c-0.414,0-0.75,0.336-0.75,0.75s0.336,0.75,0.75,0.75H18c0.414,0,0.75-0.336,0.75-0.75S18.414,13,18,13z M11.316,13.592 c-0.014-0.076-0.013-0.2-0.019-0.212c0.554-0.686,0.831-1.555,0.774-2.435c0.062-1.144-0.816-2.121-1.959-2.183 s-2.121,0.816-2.183,1.959c-0.004,0.074-0.004,0.149,0,0.223c-0.06,0.858,0.202,1.707,0.736,2.381 c0.026,0.086,0.032,0.177,0.019,0.266c-1.314,0.49-2.04,0.859-2.348,1.474c-0.16,0.354-0.271,0.729-0.328,1.113 c-0.026,0.146,0.013,0.295,0.108,0.409c0.095,0.114,0.236,0.18,0.384,0.18h7c0.148,0,0.289-0.066,0.384-0.18 c0.095-0.114,0.134-0.263,0.108-0.409c-0.057-0.384-0.168-0.759-0.328-1.113C13.355,14.451,12.629,14.082,11.316,13.592z"></path>
</svg>
