<svg viewBox="0 0 24 24">
    <path d="M 16.846,14.222c0.091,2.388-1.766,4.4-4.154,4.5"></path>
    <path d="M 12,23.222c-4.615,0-9-3.358-9-7.5 C2.946,12.495,4.922,9.58,7.94,8.435c0.192-0.078,0.411,0.014,0.489,0.206c0.023,0.056,0.032,0.116,0.026,0.176 C8.244,10.431,8.863,12.042,10.1,13.1c0.289,0.244,0.714,0.235,0.992-0.021c1.32-1.217,4.557-5.237-1.223-11.676 c-0.138-0.154-0.126-0.391,0.028-0.53c0.081-0.072,0.188-0.106,0.296-0.093C15.621,1.447,21,7.571,21,13.472 C21,18.472,18,23.222,12,23.222z"></path>
</svg>