<svg viewBox="0 0 24 24" height="24" width="24">
        <path stroke="none" d="M24,8.25c0-0.276-0.224-0.5-0.5-0.5h-23C0.224,7.75,0,7.974,0,8.25v12c0,1.381,1.119,2.5,2.5,2.5h19 c1.381,0,2.5-1.119,2.5-2.5V8.25z M16.235,14.118c0.625,0.253,0.927,0.964,0.674,1.59c-0.124,0.307-0.367,0.55-0.674,0.674 l-6.626,2.776c-0.584,0.253-1.262-0.016-1.515-0.6C8.035,18.42,8.003,18.273,8,18.123v-5.746c0.012-0.636,0.536-1.141,1.172-1.13 c0.151,0.003,0.299,0.035,0.437,0.095L16.235,14.118z M19.563,1.677c0.098-0.098,0.098-0.256,0-0.354 c-0.047-0.047-0.11-0.073-0.176-0.073H15.6c-0.027,0-0.053,0.011-0.073,0.03l-4.54,4.543c-0.098,0.098-0.098,0.256,0,0.354 c0.047,0.047,0.111,0.074,0.177,0.073h3.783c0.028,0,0.054-0.011,0.074-0.03L19.563,1.677z M22.075,1.318 c-0.016-0.004-0.033,0.001-0.045,0.013l-4.492,4.492c-0.098,0.098-0.098,0.256,0,0.354c0.047,0.047,0.111,0.074,0.177,0.073H23.5 c0.276,0,0.5-0.224,0.5-0.5v-2C24,2.591,23.203,1.585,22.075,1.318z M13.013,1.677c0.098-0.098,0.098-0.256,0-0.354 c-0.047-0.047-0.111-0.074-0.177-0.073H9.1c-0.027,0-0.053,0.011-0.073,0.03l-4.54,4.543c-0.098,0.098-0.098,0.256,0,0.354 C4.534,6.224,4.597,6.25,4.664,6.25H8.4c0.027,0,0.053-0.011,0.073-0.03L13.013,1.677z M6.513,1.677 c0.098-0.098,0.098-0.256,0-0.354C6.466,1.276,6.403,1.25,6.336,1.25H2.5C1.119,1.25,0,2.369,0,3.75v2c0,0.276,0.224,0.5,0.5,0.5 h1.4c0.027,0,0.053-0.011,0.073-0.03L6.513,1.677z""></path>
</svg>