<svg viewBox="-1 -1 19 22">
    <path d="M10.384 15.753a3.54 3.54 0 1 1 3.539 3.541 3.557 3.557 0 0 1-3.539-3.541zm1.388.069a2.152 2.152 0 1 0 2.151-2.152 2.164 2.164 0 0 0-2.151 2.152zM8.926 13.6l-2.708-1.666a3.65 3.65 0 0 1-1.806 1.042 3.534 3.534 0 0 1-.834.139 3.358 3.358 0 0 1-1.8-.486A3.468 3.468 0 0 1 .525 7.77a3.467 3.467 0 0 1 4.859-1.25 3.937 3.937 0 0 1 1.6 2.219 3.539 3.539 0 0 1-.068 2.083l2.702 1.668a.718.718 0 0 1 .279.834.834.834 0 0 1-.625.347.625.625 0 0 1-.346-.071zM1.7 8.533a2.07 2.07 0 0 0-.273 1.667 2.091 2.091 0 0 0 .973 1.317 2.165 2.165 0 0 0 2.985-.763 2.065 2.065 0 0 0 .277-1.667 2.1 2.1 0 0 0-.97-1.318 2.159 2.159 0 0 0-1.115-.313A2.185 2.185 0 0 0 1.7 8.533zm5.833-1.11a.682.682 0 0 1 .207-.972l2.708-1.667a4.249 4.249 0 0 1-.064-2.084 3.3 3.3 0 0 1 1.6-2.224 3.6 3.6 0 0 1 4.856 1.253 3.666 3.666 0 0 1 .416 2.709 3.3 3.3 0 0 1-1.595 2.219 3.37 3.37 0 0 1-1.806.486A3.418 3.418 0 0 1 13.021 7a3.658 3.658 0 0 1-1.806-1.04L8.51 7.629a.52.52 0 0 1-.348.07 1.242 1.242 0 0 1-.624-.276zm5.206-5.694a2.1 2.1 0 0 0-.972 1.318 2.4 2.4 0 0 0 .277 1.668 2.1 2.1 0 0 0 1.32.972 2.322 2.322 0 0 0 1.665-.279 2.163 2.163 0 0 0 .771-2.985 2.123 2.123 0 0 0-1.876-1.04 1.929 1.929 0 0 0-1.18.346z" />
</svg>
